<svg width="359" height="258" viewBox="0 0 359 258" fill="none" xmlns="http://www.w3.org/2000/svg">
<g clip-path="url(#clip0_2_2)">
<path d="M359 129C359 200.245 278.635 258 179.5 258C80.3649 258 0 200.245 0 129C0 57.7552 80.3649 0 179.5 0C278.635 0 122.102 191.143 359 129Z" fill="black"/>
<path d="M170.108 130.452C170.79 196.497 271.695 248.257 180.735 248.89C89.7748 249.525 15.4839 196.497 14.8018 130.452C14.1197 64.4067 87.3047 10.3526 178.265 9.71889C269.225 9.08521 169.425 64.4067 170.108 130.452Z" fill="#7A1E1C"/>
<path d="M331.812 130.279C332.418 188.983 265.184 237.043 181.641 237.625C98.098 238.207 29.8813 191.091 29.2751 132.387C28.6688 73.6829 95.9026 25.6222 179.446 25.0402C262.989 24.4582 331.206 71.5751 331.812 130.279Z" fill="#9B6E3C"/>
<path d="M67.0607 102.652C86.6135 50.777 152.815 21.6442 214.926 37.5831C277.036 53.5218 311.537 108.496 291.984 160.372C272.431 212.248 206.23 241.381 144.119 225.441C82.0078 209.503 232.538 95.4926 67.0607 102.652Z" fill="black"/>
<path d="M185.815 131.9C202.913 83.5543 153.181 30.1935 210.562 43.7528C267.941 57.3121 300.597 107.496 283.498 155.841C266.401 204.187 206.024 232.386 148.645 218.827C91.2645 205.268 168.717 180.245 185.815 131.9Z" fill="#7A1E1C"/>
<path d="M84.0607 107.098C99.2579 64.127 154.3 39.3877 207.002 51.8414C259.703 64.2951 290.106 109.226 274.908 152.197C259.711 195.168 204.669 219.908 151.968 207.454C99.2664 195 68.8634 150.069 84.0607 107.098Z" fill="#9B6E3C"/>
<path d="M266.202 138.777C259.791 180.114 215.892 209.577 168.151 204.581C120.41 199.587 86.9056 162.027 93.3169 120.688C99.7283 79.3501 143.627 49.8881 191.368 54.883C239.11 59.8779 146.525 162.897 266.202 138.777Z" fill="black"/>
<path d="M175.105 130.101C169.491 168.457 213.427 203.573 169.565 199.358C125.704 195.143 94.6995 160.632 100.315 122.277C105.93 83.9208 146.038 56.2446 189.898 60.4599C233.76 64.6752 180.721 91.746 175.105 130.101Z" fill="#7A1E1C"/>
<path d="M252.994 138.148C248.003 172.24 211.3 196.739 171.015 192.867C130.73 188.996 102.119 158.22 107.11 124.128C112.101 90.036 148.804 65.5377 189.089 69.4093C229.374 73.2808 257.984 104.056 252.994 138.148Z" fill="#9B6E3C"/>
<path d="M126.041 118.446C135.78 93.0257 168.778 78.9051 199.744 86.9083C230.709 94.9106 247.917 122.006 238.177 147.427C228.438 172.848 195.44 186.969 164.475 178.965C133.509 170.962 208.533 115.397 126.041 118.446Z" fill="black"/>
<path d="M185.241 133.177C194.056 109.556 169.614 82.9419 198.113 90.0583C226.611 97.1751 242.567 122.093 233.752 145.714C224.936 169.335 194.688 182.715 166.189 175.598C137.69 168.481 176.426 156.798 185.241 133.177Z" fill="#7A1E1C"/>
<path d="M134.709 120.185C142.544 99.1894 170.115 87.4688 196.29 94.0054C222.464 100.541 237.331 122.86 229.496 143.855C221.661 164.851 194.09 176.571 167.915 170.035C141.739 163.499 126.873 141.18 134.709 120.185Z" fill="#9B6E3C"/>
<path d="M222.844 142.157C217.7 159.676 196.256 170.457 174.949 166.237C153.641 162.016 140.537 144.393 145.681 126.873C150.825 109.354 172.269 98.5732 193.576 102.794C214.884 107.013 167.439 147.353 222.844 142.157Z" fill="black"/>
<path d="M182.139 134.473C177.517 150.742 195.468 167.766 175.871 164.049C156.276 160.333 144.136 144.131 148.758 127.861C153.38 111.591 173.013 101.415 192.61 105.131C212.206 108.848 186.76 118.203 182.139 134.473Z" fill="#7A1E1C"/>
<path d="M216.908 141.314C212.799 155.775 194.879 164.732 176.88 161.318C158.881 157.905 147.621 143.414 151.729 128.953C155.837 114.491 173.758 105.535 191.757 108.949C209.755 112.362 221.016 126.853 216.908 141.314Z" fill="#9B6E3C"/>
<path d="M161.227 124.977C167.936 114.123 183.973 109.743 197.046 115.195C210.119 120.647 215.278 133.865 208.569 144.719C201.858 155.573 185.821 159.952 172.748 154.501C159.675 149.049 198.319 128.537 161.227 124.977Z" fill="black"/>
<path d="M186.273 135.143C192.403 125.044 183.971 111.609 196.025 116.515C208.08 121.421 212.883 133.585 206.753 143.684C200.623 153.783 185.881 157.994 173.826 153.087C161.771 148.182 180.142 145.243 186.273 135.143Z" fill="#7A1E1C"/>
<path d="M164.932 126.277C170.381 117.3 183.774 113.676 194.845 118.181C205.917 122.687 210.475 133.617 205.027 142.593C199.578 151.57 186.185 155.194 175.114 150.689C164.041 146.183 159.483 135.254 164.932 126.277Z" fill="#9B6E3C"/>
<path d="M201.015 133.131C201.588 141.121 194.666 147.955 185.554 148.395C176.442 148.836 168.591 142.716 168.018 134.727C167.445 126.736 174.368 119.902 183.48 119.462C192.592 119.021 179.741 141.153 201.015 133.131Z" fill="black"/>
<path d="M183.665 134.133C184.259 141.537 193.95 146.893 185.594 147.368C177.239 147.843 169.984 142.227 169.391 134.823C168.797 127.419 175.089 121.032 183.445 120.557C191.8 120.081 183.071 126.729 183.665 134.133Z" fill="#7A1E1C"/>
<path d="M198.527 133.395C199.054 139.976 193.261 145.665 185.587 146.101C177.913 146.537 171.264 141.556 170.737 134.976C170.209 128.395 176.002 122.707 183.677 122.27C191.35 121.833 197.999 126.814 198.527 133.395Z" fill="#9B6E3C"/>
<rect x="241" y="33" width="78" height="67" rx="10" fill="#102F41"/>
<path d="M252.929 55.4915C252.929 49.9687 257.407 45.4915 262.929 45.4915H263.941V100H252.929V55.4915Z" fill="#D9D9D9"/>
<path d="M252.929 55.4915C252.929 49.9687 257.407 45.4915 262.929 45.4915H319V60.2542H252.929V55.4915Z" fill="#D9D9D9"/>
<path d="M263.941 59.1187H319V90C319 95.5229 314.523 100 309 100H263.941V59.1187Z" fill="#00D0EC"/>
<rect x="258.435" y="69.339" width="39.4588" height="13.6271" fill="#D9D9D9"/>
<path d="M307.988 76.7548L290.091 87.983L290.134 65.4232L307.988 76.7548Z" fill="#D9D9D9"/>
</g>
<defs>
<clipPath id="clip0_2_2">
<rect width="359" height="258" fill="white"/>
</clipPath>
</defs>
</svg>
