<svg width="406" height="317" viewBox="0 0 406 317" fill="none" xmlns="http://www.w3.org/2000/svg">
<g clip-path="url(#clip0_4_64)">
<path d="M383 158C383 229.245 302.635 287 203.5 287C104.365 287 24 229.245 24 158C24 86.7552 104.365 29 203.5 29C302.635 29 146.102 220.143 383 158Z" fill="black"/>
<path d="M194.108 159.452C194.79 225.497 295.695 277.257 204.735 277.89C113.775 278.525 39.4839 225.497 38.8018 159.452C38.1197 93.4067 111.305 39.3526 202.265 38.7189C293.225 38.0852 193.425 93.4067 194.108 159.452Z" fill="#7A1E1C"/>
<path d="M355.812 159.279C356.418 217.983 289.184 266.043 205.641 266.625C122.098 267.207 53.8813 220.091 53.2751 161.387C52.6688 102.683 119.903 54.6222 203.446 54.0402C286.989 53.4582 355.206 100.575 355.812 159.279Z" fill="#9B6E3C"/>
<path d="M91.0607 131.652C110.614 79.777 176.815 50.6442 238.926 66.5831C301.036 82.5218 335.537 137.496 315.984 189.372C296.431 241.248 230.23 270.381 168.119 254.441C106.008 238.503 256.538 124.493 91.0607 131.652Z" fill="black"/>
<path d="M209.815 160.9C226.913 112.554 177.181 59.1935 234.562 72.7528C291.941 86.3121 324.597 136.496 307.498 184.841C290.401 233.187 230.024 261.386 172.645 247.827C115.264 234.268 192.717 209.245 209.815 160.9Z" fill="#7A1E1C"/>
<path d="M108.061 136.098C123.258 93.127 178.3 68.3877 231.002 80.8414C283.703 93.2951 314.106 138.226 298.908 181.197C283.711 224.168 228.669 248.908 175.968 236.454C123.266 224 92.8634 179.069 108.061 136.098Z" fill="#9B6E3C"/>
<path d="M290.202 167.777C283.791 209.114 239.892 238.577 192.151 233.581C144.41 228.587 110.906 191.027 117.317 149.688C123.728 108.35 167.627 78.8881 215.368 83.883C263.11 88.8779 170.525 191.897 290.202 167.777Z" fill="black"/>
<path d="M199.105 159.101C193.491 197.457 237.427 232.573 193.565 228.358C149.704 224.143 118.7 189.632 124.315 151.277C129.93 112.921 170.038 85.2446 213.898 89.4599C257.76 93.6752 204.721 120.746 199.105 159.101Z" fill="#7A1E1C"/>
<path d="M276.994 167.148C272.003 201.24 235.3 225.739 195.015 221.867C154.73 217.996 126.119 187.22 131.11 153.128C136.101 119.036 172.804 94.5377 213.089 98.4093C253.374 102.281 281.984 133.056 276.994 167.148Z" fill="#9B6E3C"/>
<path d="M150.041 147.446C159.78 122.026 192.778 107.905 223.744 115.908C254.709 123.911 271.917 151.006 262.177 176.427C252.438 201.848 219.44 215.969 188.475 207.965C157.509 199.962 232.533 144.397 150.041 147.446Z" fill="black"/>
<path d="M209.241 162.177C218.056 138.556 193.614 111.942 222.113 119.058C250.611 126.175 266.567 151.093 257.752 174.714C248.936 198.335 218.688 211.715 190.189 204.598C161.69 197.481 200.426 185.798 209.241 162.177Z" fill="#7A1E1C"/>
<path d="M158.709 149.185C166.544 128.189 194.115 116.469 220.29 123.005C246.464 129.541 261.331 151.86 253.496 172.855C245.661 193.851 218.09 205.571 191.915 199.035C165.739 192.499 150.873 170.18 158.709 149.185Z" fill="#9B6E3C"/>
<path d="M246.844 171.157C241.7 188.676 220.256 199.457 198.949 195.237C177.641 191.016 164.537 173.393 169.681 155.873C174.825 138.354 196.269 127.573 217.576 131.794C238.884 136.013 191.439 176.353 246.844 171.157Z" fill="black"/>
<path d="M206.139 163.473C201.517 179.742 219.468 196.766 199.871 193.049C180.276 189.333 168.136 173.131 172.758 156.861C177.38 140.591 197.013 130.415 216.61 134.131C236.206 137.848 210.76 147.203 206.139 163.473Z" fill="#7A1E1C"/>
<path d="M240.908 170.314C236.799 184.775 218.879 193.732 200.88 190.318C182.881 186.905 171.621 172.414 175.729 157.953C179.837 143.491 197.758 134.535 215.757 137.949C233.755 141.362 245.016 155.853 240.908 170.314Z" fill="#9B6E3C"/>
<path d="M185.227 153.977C191.936 143.123 207.973 138.743 221.046 144.195C234.119 149.647 239.278 162.865 232.569 173.719C225.858 184.573 209.821 188.952 196.748 183.501C183.675 178.049 222.319 157.537 185.227 153.977Z" fill="black"/>
<path d="M210.273 164.143C216.403 154.044 207.971 140.609 220.025 145.515C232.08 150.421 236.883 162.585 230.753 172.684C224.623 182.783 209.881 186.994 197.826 182.087C185.771 177.182 204.142 174.243 210.273 164.143Z" fill="#7A1E1C"/>
<path d="M188.932 155.277C194.381 146.3 207.774 142.676 218.845 147.181C229.917 151.687 234.475 162.617 229.027 171.593C223.578 180.57 210.185 184.194 199.114 179.689C188.041 175.183 183.483 164.254 188.932 155.277Z" fill="#9B6E3C"/>
<path d="M225.015 162.131C225.588 170.121 218.666 176.955 209.554 177.395C200.442 177.836 192.591 171.716 192.018 163.727C191.445 155.736 198.368 148.902 207.48 148.462C216.592 148.021 203.741 170.153 225.015 162.131Z" fill="black"/>
<path d="M207.665 163.133C208.259 170.537 217.95 175.893 209.594 176.368C201.239 176.843 193.984 171.227 193.391 163.823C192.797 156.419 199.089 150.032 207.445 149.557C215.8 149.081 207.071 155.729 207.665 163.133Z" fill="#7A1E1C"/>
<path d="M222.527 162.395C223.054 168.976 217.261 174.665 209.587 175.101C201.913 175.537 195.264 170.556 194.737 163.976C194.209 157.395 200.002 151.707 207.677 151.27C215.35 150.833 221.999 155.814 222.527 162.395Z" fill="#9B6E3C"/>
<rect x="265" y="62" width="78" height="67" rx="10" fill="#102F41"/>
<path d="M276.929 84.4915C276.929 78.9687 281.407 74.4915 286.929 74.4915H287.941V129H276.929V84.4915Z" fill="#D9D9D9"/>
<path d="M276.929 84.4915C276.929 78.9687 281.407 74.4915 286.929 74.4915H343V89.2542H276.929V84.4915Z" fill="#D9D9D9"/>
<path d="M287.941 88.1187H343V119C343 124.523 338.523 129 333 129H287.941V88.1187Z" fill="#00D0EC"/>
<rect x="282.435" y="98.339" width="39.4588" height="13.6271" fill="#D9D9D9"/>
<path d="M331.988 105.755L314.091 116.983L314.134 94.4232L331.988 105.755Z" fill="#D9D9D9"/>
</g>
<defs>
<clipPath id="clip0_4_64">
<rect width="359" height="258" fill="white" transform="translate(24 29)"/>
</clipPath>
</defs>
</svg>
